<mxfile host="65bd71144e">
    <diagram id="DWikMkKum21EP_KZnO9k" name="Page-1">
        <mxGraphModel dx="2441" dy="1999" grid="1" gridSize="10" guides="1" tooltips="1" connect="1" arrows="1" fold="1" page="1" pageScale="1" pageWidth="827" pageHeight="1169" math="0" shadow="0">
            <root>
                <mxCell id="0"/>
                <mxCell id="1" parent="0"/>
                <mxCell id="2" value="&lt;u&gt;:Poste Contrôleur&lt;/u&gt;" style="shape=umlLifeline;perimeter=lifelinePerimeter;whiteSpace=wrap;html=1;container=1;collapsible=0;recursiveResize=0;outlineConnect=0;" parent="1" vertex="1">
                    <mxGeometry x="240" y="50" width="100" height="240" as="geometry"/>
                </mxCell>
                <mxCell id="9" value="" style="html=1;points=[];perimeter=orthogonalPerimeter;" parent="2" vertex="1">
                    <mxGeometry x="45" y="60" width="10" height="170" as="geometry"/>
                </mxCell>
                <mxCell id="5" value="&lt;u&gt;:BDD&lt;/u&gt;" style="shape=umlLifeline;perimeter=lifelinePerimeter;whiteSpace=wrap;html=1;container=1;collapsible=0;recursiveResize=0;outlineConnect=0;" parent="1" vertex="1">
                    <mxGeometry x="390" y="50" width="110" height="260" as="geometry"/>
                </mxCell>
                <mxCell id="10" value="" style="html=1;points=[];perimeter=orthogonalPerimeter;" parent="5" vertex="1">
                    <mxGeometry x="50" y="150" width="10" height="80" as="geometry"/>
                </mxCell>
                <mxCell id="15" value="Contrôleur" style="shape=rect;html=1;whiteSpace=wrap;align=center;fillColor=none;" parent="1" vertex="1">
                    <mxGeometry x="1490" y="40" width="100" height="40" as="geometry"/>
                </mxCell>
                <mxCell id="16" value="" style="edgeStyle=none;html=1;dashed=1;endArrow=none;align=center;verticalAlign=bottom;exitX=0.5;exitY=1;startArrow=none;" parent="1" source="22" edge="1">
                    <mxGeometry x="1" relative="1" as="geometry">
                        <mxPoint x="1540" y="310" as="targetPoint"/>
                    </mxGeometry>
                </mxCell>
                <mxCell id="18" value="Poste Contrôleur" style="shape=rect;html=1;whiteSpace=wrap;align=center;fillColor=none;" parent="1" vertex="1">
                    <mxGeometry x="1660" y="40" width="100" height="40" as="geometry"/>
                </mxCell>
                <mxCell id="19" value="" style="edgeStyle=none;html=1;dashed=1;endArrow=none;align=center;verticalAlign=bottom;exitX=0.5;exitY=1;startArrow=none;" parent="1" source="24" edge="1">
                    <mxGeometry x="1" relative="1" as="geometry">
                        <mxPoint x="1710" y="310" as="targetPoint"/>
                    </mxGeometry>
                </mxCell>
                <mxCell id="20" value="BDD" style="shape=rect;html=1;whiteSpace=wrap;align=center;fillColor=none;" parent="1" vertex="1">
                    <mxGeometry x="1810" y="40" width="100" height="40" as="geometry"/>
                </mxCell>
                <mxCell id="21" value="" style="edgeStyle=none;html=1;dashed=1;endArrow=none;align=center;verticalAlign=bottom;exitX=0.5;exitY=1;startArrow=none;" parent="1" source="28" edge="1">
                    <mxGeometry x="1" relative="1" as="geometry">
                        <mxPoint x="1860" y="310" as="targetPoint"/>
                    </mxGeometry>
                </mxCell>
                <mxCell id="22" value="" style="rounded=0;whiteSpace=wrap;html=1;fillColor=default;" parent="1" vertex="1">
                    <mxGeometry x="1535" y="95" width="10" height="115" as="geometry"/>
                </mxCell>
                <mxCell id="23" value="" style="edgeStyle=none;html=1;dashed=1;endArrow=none;align=center;verticalAlign=bottom;exitX=0.5;exitY=1;" parent="1" source="15" target="22" edge="1">
                    <mxGeometry x="1" relative="1" as="geometry">
                        <mxPoint x="1540" y="190" as="targetPoint"/>
                        <mxPoint x="1540" y="80" as="sourcePoint"/>
                    </mxGeometry>
                </mxCell>
                <mxCell id="24" value="" style="rounded=0;whiteSpace=wrap;html=1;fillColor=default;" parent="1" vertex="1">
                    <mxGeometry x="1705" y="95" width="10" height="115" as="geometry"/>
                </mxCell>
                <mxCell id="25" value="" style="edgeStyle=none;html=1;dashed=1;endArrow=none;align=center;verticalAlign=bottom;exitX=0.5;exitY=1;" parent="1" source="18" target="24" edge="1">
                    <mxGeometry x="1" relative="1" as="geometry">
                        <mxPoint x="1710" y="190" as="targetPoint"/>
                        <mxPoint x="1710" y="80" as="sourcePoint"/>
                    </mxGeometry>
                </mxCell>
                <mxCell id="27" value="getFormulaire()" style="html=1;verticalAlign=bottom;endArrow=block;exitX=1;exitY=0;exitDx=0;exitDy=0;entryX=0;entryY=0;entryDx=0;entryDy=0;" parent="1" source="22" target="24" edge="1">
                    <mxGeometry width="80" relative="1" as="geometry">
                        <mxPoint x="1520" as="sourcePoint"/>
                        <mxPoint x="1600" as="targetPoint"/>
                        <Array as="points"/>
                    </mxGeometry>
                </mxCell>
                <mxCell id="28" value="" style="rounded=0;whiteSpace=wrap;html=1;fillColor=default;" parent="1" vertex="1">
                    <mxGeometry x="1855" y="210" width="10" height="60" as="geometry"/>
                </mxCell>
                <mxCell id="29" value="" style="edgeStyle=none;html=1;dashed=1;endArrow=none;align=center;verticalAlign=bottom;exitX=0.5;exitY=1;" parent="1" source="20" target="28" edge="1">
                    <mxGeometry x="1" relative="1" as="geometry">
                        <mxPoint x="1860" y="190" as="targetPoint"/>
                        <mxPoint x="1860" y="80" as="sourcePoint"/>
                    </mxGeometry>
                </mxCell>
                <mxCell id="30" value="sendAffaire(affaire)" style="html=1;verticalAlign=bottom;endArrow=block;exitX=1;exitY=1;exitDx=0;exitDy=0;entryX=0;entryY=0;entryDx=0;entryDy=0;" parent="1" source="24" target="28" edge="1">
                    <mxGeometry width="80" relative="1" as="geometry">
                        <mxPoint x="1520" as="sourcePoint"/>
                        <mxPoint x="1600" as="targetPoint"/>
                    </mxGeometry>
                </mxCell>
                <mxCell id="32" value="formulaire()" style="html=1;verticalAlign=bottom;endArrow=open;dashed=1;endSize=8;exitX=0;exitY=0.5;exitDx=0;exitDy=0;entryX=1;entryY=0.5;entryDx=0;entryDy=0;" parent="1" source="24" target="22" edge="1">
                    <mxGeometry relative="1" as="geometry">
                        <mxPoint x="1600" y="-80" as="sourcePoint"/>
                        <mxPoint x="1540" y="133" as="targetPoint"/>
                    </mxGeometry>
                </mxCell>
                <mxCell id="34" value="formulaire(affaire)" style="html=1;verticalAlign=bottom;endArrow=open;dashed=1;endSize=8;exitX=1;exitY=1;exitDx=0;exitDy=0;entryX=0;entryY=1;entryDx=0;entryDy=0;" parent="1" source="22" target="24" edge="1">
                    <mxGeometry relative="1" as="geometry">
                        <mxPoint x="1600" y="-80" as="sourcePoint"/>
                        <mxPoint x="1700" y="155" as="targetPoint"/>
                    </mxGeometry>
                </mxCell>
                <mxCell id="36" value="" style="rounded=1;whiteSpace=wrap;html=1;fillColor=none;" parent="1" vertex="1">
                    <mxGeometry x="1450" y="20" width="520" height="320" as="geometry"/>
                </mxCell>
                <mxCell id="37" value="Création de la liste des essais" style="text;html=1;strokeColor=none;fillColor=none;align=center;verticalAlign=middle;whiteSpace=wrap;rounded=0;" parent="1" vertex="1">
                    <mxGeometry x="1610" y="340" width="200" height="30" as="geometry"/>
                </mxCell>
                <mxCell id="38" value="Contrôleur" style="shape=umlActor;html=1;verticalLabelPosition=bottom;verticalAlign=top;align=center;strokeColor=default;fontColor=none;noLabel=1;" vertex="1" parent="1">
                    <mxGeometry x="120" y="20" width="40" height="60" as="geometry"/>
                </mxCell>
                <mxCell id="39" value="" style="endArrow=none;dashed=1;html=1;startArrow=none;" edge="1" parent="1" source="41" target="38">
                    <mxGeometry width="50" height="50" relative="1" as="geometry">
                        <mxPoint x="140" y="360" as="sourcePoint"/>
                        <mxPoint x="130" y="90" as="targetPoint"/>
                    </mxGeometry>
                </mxCell>
                <mxCell id="40" value="Contrôleur" style="text;html=1;align=center;verticalAlign=middle;whiteSpace=wrap;rounded=0;" vertex="1" parent="1">
                    <mxGeometry x="110" y="-10" width="60" height="30" as="geometry"/>
                </mxCell>
                <mxCell id="41" value="" style="rounded=0;whiteSpace=wrap;html=1;fontColor=#FFFFFF;strokeColor=default;fillColor=none;" vertex="1" parent="1">
                    <mxGeometry x="135" y="110" width="10" height="240" as="geometry"/>
                </mxCell>
                <mxCell id="42" value="" style="endArrow=none;dashed=1;html=1;" edge="1" parent="1" target="41">
                    <mxGeometry width="50" height="50" relative="1" as="geometry">
                        <mxPoint x="140" y="380" as="sourcePoint"/>
                        <mxPoint x="140" y="80" as="targetPoint"/>
                    </mxGeometry>
                </mxCell>
                <mxCell id="43" value="" style="endArrow=classic;html=1;fontColor=#FFFFFF;exitX=0.786;exitY=0.058;exitDx=0;exitDy=0;exitPerimeter=0;" edge="1" parent="1" source="41">
                    <mxGeometry width="50" height="50" relative="1" as="geometry">
                        <mxPoint x="150" y="123" as="sourcePoint"/>
                        <mxPoint x="290" y="123" as="targetPoint"/>
                        <Array as="points">
                            <mxPoint x="260" y="123"/>
                        </Array>
                    </mxGeometry>
                </mxCell>
                <mxCell id="44" value="insererAffaire(affaire)" style="text;html=1;strokeColor=none;fillColor=none;align=center;verticalAlign=middle;whiteSpace=wrap;rounded=0;fontColor=#FFFFFF;" vertex="1" parent="1">
                    <mxGeometry x="180" y="95" width="60" height="30" as="geometry"/>
                </mxCell>
                <mxCell id="47" value="&lt;font style=&quot;font-size: 6px&quot;&gt;Le contrôlleur insère l'affaire dans le formulaire du poste contrôlleur&lt;/font&gt;" style="shape=note2;boundedLbl=1;whiteSpace=wrap;html=1;size=25;verticalAlign=top;align=center;fontColor=#FFFFFF;strokeColor=default;fillColor=none;" vertex="1" parent="1">
                    <mxGeometry x="10" y="85" width="80" height="75" as="geometry"/>
                </mxCell>
                <mxCell id="48" value="" style="endArrow=classic;html=1;fontColor=#FFFFFF;exitX=1.06;exitY=0.711;exitDx=0;exitDy=0;exitPerimeter=0;entryX=0.14;entryY=0.385;entryDx=0;entryDy=0;entryPerimeter=0;" edge="1" parent="1" source="9" target="10">
                    <mxGeometry width="50" height="50" relative="1" as="geometry">
                        <mxPoint x="300" y="230" as="sourcePoint"/>
                        <mxPoint x="430" y="231" as="targetPoint"/>
                        <Array as="points">
                            <mxPoint x="415" y="230.5"/>
                        </Array>
                    </mxGeometry>
                </mxCell>
                <mxCell id="49" value="envoyerAffaire(affaire)" style="text;html=1;strokeColor=none;fillColor=none;align=center;verticalAlign=middle;whiteSpace=wrap;rounded=0;fontColor=#FFFFFF;" vertex="1" parent="1">
                    <mxGeometry x="340" y="200" width="60" height="30" as="geometry"/>
                </mxCell>
                <mxCell id="50" value="&lt;font style=&quot;font-size: 12px&quot;&gt;Message de réussite&lt;/font&gt;" style="endArrow=open;startArrow=none;endFill=0;startFill=0;endSize=8;html=1;verticalAlign=bottom;dashed=1;labelBackgroundColor=none;fontSize=6;fontColor=#FFFFFF;exitX=0.02;exitY=0.775;exitDx=0;exitDy=0;exitPerimeter=0;entryX=0.767;entryY=0.896;entryDx=0;entryDy=0;entryPerimeter=0;" edge="1" parent="1" source="10" target="9">
                    <mxGeometry x="-0.0483" width="160" relative="1" as="geometry">
                        <mxPoint x="120" y="200" as="sourcePoint"/>
                        <mxPoint x="280" y="200" as="targetPoint"/>
                        <mxPoint as="offset"/>
                    </mxGeometry>
                </mxCell>
                <mxCell id="53" value="" style="rounded=1;whiteSpace=wrap;html=1;fillColor=none;pointerEvents=0;" vertex="1" parent="1">
                    <mxGeometry x="-30" y="-10" width="580" height="387.5" as="geometry"/>
                </mxCell>
                <mxCell id="51" value="&lt;font style=&quot;font-size: 12px&quot;&gt;Message de réussite&lt;/font&gt;" style="endArrow=open;startArrow=none;endFill=0;startFill=0;endSize=8;html=1;verticalAlign=bottom;dashed=1;labelBackgroundColor=none;fontSize=6;fontColor=#FFFFFF;exitX=-0.14;exitY=0.988;exitDx=0;exitDy=0;exitPerimeter=0;entryX=1.3;entryY=0.698;entryDx=0;entryDy=0;entryPerimeter=0;" edge="1" parent="1" source="9" target="41">
                    <mxGeometry width="160" relative="1" as="geometry">
                        <mxPoint x="445.20000000000005" y="272" as="sourcePoint"/>
                        <mxPoint x="150" y="278" as="targetPoint"/>
                    </mxGeometry>
                </mxCell>
                <mxCell id="54" value="" style="endArrow=classic;html=1;fontColor=#FFFFFF;exitX=0.786;exitY=0.058;exitDx=0;exitDy=0;exitPerimeter=0;entryX=1;entryY=1;entryDx=0;entryDy=0;" edge="1" parent="1" target="41">
                    <mxGeometry width="50" height="50" relative="1" as="geometry">
                        <mxPoint x="145.0000000000001" y="310.9200000000001" as="sourcePoint"/>
                        <mxPoint x="292.14" y="310" as="targetPoint"/>
                        <Array as="points">
                            <mxPoint x="200" y="310"/>
                            <mxPoint x="200" y="350"/>
                        </Array>
                    </mxGeometry>
                </mxCell>
                <mxCell id="55" value="Rechargement de page" style="text;html=1;strokeColor=none;fillColor=none;align=center;verticalAlign=middle;whiteSpace=wrap;rounded=0;pointerEvents=0;fontFamily=Helvetica;fontSize=12;fontColor=default;" vertex="1" parent="1">
                    <mxGeometry x="210" y="310" width="60" height="30" as="geometry"/>
                </mxCell>
            </root>
        </mxGraphModel>
    </diagram>
</mxfile>